2.2Hzhigh3min_grf.mot
version=1
nRows=22
nColumns 19
inDegrees=yes
endheader
time	1_ground_force_vx	1_ground_force_vy	1_ground_force_vz	1_ground_force_px	1_ground_force_py	1_ground_force_pz	1_ground_torque_x	1_ground_torque_y	1_ground_torque_z	2_ground_force_vx	2_ground_force_vy	2_ground_force_vz	2_ground_force_px	2_ground_force_py	2_ground_force_pz	2_ground_torque_x	2_ground_torque_y	2_ground_torque_z
            0.005000	           -0.046755	            8.110963	            0.264177	           -0.198314	            0.005912	           -0.331194	            0.267191	           -0.499990	            0.201729	            0.082278	            3.131864	           -0.270438	           -0.221458	            0.005813	           -0.733802	           -0.281073	           -0.190273	            0.055996
            0.005500	           -0.092238	            7.389499	            0.352910	           -0.198314	            0.005912	           -0.331194	            0.188275	           -0.490135	            0.049653	            0.455104	            3.685495	           -0.221699	           -0.221458	            0.005813	           -0.733802	           -0.262304	           -0.190071	            0.018287
            0.006000	            0.273919	            8.111419	            0.171668	           -0.198314	            0.005912	           -0.331194	            0.233422	           -0.342473	            0.159777	            0.361363	            3.685491	           -0.315515	           -0.221458	            0.005813	           -0.733802	           -0.205812	           -0.227678	            0.018129
            0.006500	            0.594349	            7.571667	           -0.060726	           -0.198314	            0.005912	           -0.331194	            0.299778	           -0.203509	            0.136314	            0.312601	            4.237098	           -0.125811	           -0.221458	            0.005813	           -0.733802	           -0.224623	           -0.218360	            0.037021
            0.007000	            0.410863	            7.571828	           -0.106127	           -0.198314	            0.005912	           -0.331194	            0.263974	           -0.157062	            0.053591	            0.312437	            4.238437	           -0.501236	           -0.221458	            0.005813	           -0.733802	           -0.205785	           -0.246247	           -0.076190
            0.007500	            0.548620	            7.571461	           -0.014757	           -0.198314	            0.005912	           -0.331194	            0.147556	           -0.249613	            0.096943	            0.082881	            2.948218	           -0.411880	           -0.221458	            0.005813	           -0.733802	           -0.224794	           -0.171097	            0.037189
            0.008000	            0.320070	            8.291103	            0.309895	           -0.198314	            0.005912	           -0.331194	            0.321233	           -0.453190	            0.123436	            0.312478	            4.238102	           -0.407380	           -0.221458	            0.005813	           -0.733802	           -0.318601	           -0.199929	            0.074828
            0.008500	            0.136617	            8.110999	            0.263722	           -0.198314	            0.005912	           -0.331194	            0.379467	           -0.489996	            0.058927	            0.267622	            3.685488	           -0.409331	           -0.221458	            0.005813	           -0.733802	           -0.168353	           -0.189933	            0.074798
            0.009000	           -0.001058	            8.291435	            0.218980	           -0.198314	            0.005912	           -0.331194	            0.231396	           -0.490573	            0.166210	            0.311813	            4.422250	           -0.406723	           -0.221458	            0.005813	           -0.733802	           -0.243537	           -0.180685	            0.056014
            0.009500	            0.181987	            8.832660	            0.129132	           -0.198314	            0.005912	           -0.331194	            0.291292	           -0.222503	            0.193809	            0.263675	            4.790043	           -0.311533	           -0.221458	            0.005813	           -0.733802	           -0.149523	           -0.217753	           -0.057262
            0.010000	            0.226970	            7.933110	           -0.287550	           -0.198314	            0.005912	           -0.331194	            0.290360	           -0.138742	            0.064570	            0.501310	            3.869645	           -0.174133	           -0.221458	            0.005813	           -0.733802	           -0.186916	           -0.256036	            0.036870
            0.010500	            0.456982	            7.931778	            0.032873	           -0.198314	            0.005912	           -0.331194	            0.295562	           -0.138785	            0.111927	            0.266334	            4.053450	           -0.314161	           -0.221458	            0.005813	           -0.733802	           -0.186967	           -0.246448	           -0.000797
            0.011000	            0.640630	            8.291755	            0.171531	           -0.198314	            0.005912	           -0.331194	            0.251924	           -0.305005	            0.100331	            0.080305	            3.684142	           -0.221539	           -0.221458	            0.005813	           -0.733802	           -0.149583	           -0.198915	           -0.038345
            0.011500	            0.365751	            7.930974	            0.216524	           -0.198314	            0.005912	           -0.331194	            0.194119	           -0.471925	            0.182033	            0.076296	            4.789199	           -0.264525	           -0.221458	            0.005813	           -0.733802	           -0.224810	           -0.170962	           -0.000511
            0.012000	            0.274308	            8.471164	            0.356638	           -0.198314	            0.005912	           -0.331194	            0.225357	           -0.527256	            0.140194	            0.271671	            2.580096	           -0.272489	           -0.221458	            0.005813	           -0.733802	           -0.224734	           -0.189935	            0.018272
            0.012500	            0.137091	            7.389346	            0.398197	           -0.198314	            0.005912	           -0.331194	            0.280611	           -0.416789	            0.228695	            0.313869	            3.869303	           -0.267910	           -0.221458	            0.005813	           -0.733802	           -0.281140	           -0.180551	           -0.019371
            0.013000	            0.136746	            8.651403	            0.357752	           -0.198314	            0.005912	           -0.331194	            0.225217	           -0.222367	            0.154429	            0.408274	            3.685158	           -0.174751	           -0.221458	            0.005813	           -0.733802	           -0.187019	           -0.218494	            0.112405
            0.013500	            0.319714	            7.751093	            0.124153	           -0.198314	            0.005912	           -0.331194	            0.273168	           -0.139172	            0.181316	            0.313286	            4.052782	           -0.079540	           -0.221458	            0.005813	           -0.733802	           -0.149353	           -0.255833	            0.018003
            0.014000	            0.410749	            7.572024	           -0.151983	           -0.198314	            0.005912	           -0.331194	            0.247401	           -0.212930	            0.147383	            0.221581	            3.499999	           -0.081472	           -0.221458	            0.005813	           -0.733802	           -0.187068	           -0.227274	           -0.076130
            0.014500	            0.457096	            7.931582	            0.078729	           -0.198314	            0.005912	           -0.331194	            0.237093	           -0.332503	            0.017251	            0.031481	            4.236250	           -0.172620	           -0.221458	            0.005813	           -0.733802	           -0.299774	           -0.209381	            0.093637
            0.015000	            0.548309	            8.653252	           -0.055975	           -0.198314	            0.005912	           -0.331194	            0.430533	           -0.480806	            0.132807	           -0.014039	            3.867784	           -0.173914	           -0.221458	            0.005813	           -0.733802	           -0.224914	           -0.133421	            0.075024
            0.015500	            0.411577	            8.651849	            0.265358	           -0.198314	            0.005912	           -0.331194	            0.360379	           -0.499117	            0.070645	            0.078975	            4.052438	           -0.220225	           -0.221458	            0.005813	           -0.733802	           -0.243511	           -0.190070	            0.037130
